<mxfile host="app.diagrams.net" agent="Mozilla/5.0 (Windows NT 10.0; Win64; x64) AppleWebKit/537.36 (KHTML, like Gecko) Chrome/131.0.0.0 Safari/537.36" version="24.9.1">
  <diagram name="Page-1" id="-J_Lm4RNS4wThmYNDeg7">
    <mxGraphModel dx="677" dy="342" grid="1" gridSize="10" guides="1" tooltips="1" connect="1" arrows="1" fold="1" page="1" pageScale="1" pageWidth="1169" pageHeight="827" math="0" shadow="0">
      <root>
        <mxCell id="0" />
        <mxCell id="1" parent="0" />
        <mxCell id="QG6vh3K37DUtd-4cwEf6-256" style="edgeStyle=orthogonalEdgeStyle;rounded=0;orthogonalLoop=1;jettySize=auto;html=1;exitX=1;exitY=0.25;exitDx=0;exitDy=0;startArrow=classic;startFill=1;jumpStyle=arc;" edge="1" parent="1" source="QG6vh3K37DUtd-4cwEf6-251">
          <mxGeometry relative="1" as="geometry">
            <mxPoint x="360" y="280" as="targetPoint" />
          </mxGeometry>
        </mxCell>
        <mxCell id="QG6vh3K37DUtd-4cwEf6-5" value="" style="verticalLabelPosition=bottom;shadow=0;dashed=0;align=center;html=1;verticalAlign=top;shape=mxgraph.electrical.abstract.multiplier;strokeWidth=2;" vertex="1" parent="1">
          <mxGeometry x="720" y="240" width="40" height="40" as="geometry" />
        </mxCell>
        <mxCell id="QG6vh3K37DUtd-4cwEf6-153" style="edgeStyle=orthogonalEdgeStyle;rounded=0;orthogonalLoop=1;jettySize=auto;html=1;exitX=0.5;exitY=1;exitDx=0;exitDy=0;exitPerimeter=0;entryX=1;entryY=0.5;entryDx=0;entryDy=0;" edge="1" parent="1" source="QG6vh3K37DUtd-4cwEf6-6" target="QG6vh3K37DUtd-4cwEf6-113">
          <mxGeometry relative="1" as="geometry" />
        </mxCell>
        <mxCell id="QG6vh3K37DUtd-4cwEf6-6" value="" style="verticalLabelPosition=bottom;shadow=0;dashed=0;align=center;html=1;verticalAlign=top;shape=mxgraph.electrical.abstract.multiplier;strokeWidth=2;" vertex="1" parent="1">
          <mxGeometry x="680" y="320" width="40" height="40" as="geometry" />
        </mxCell>
        <mxCell id="QG6vh3K37DUtd-4cwEf6-101" style="edgeStyle=orthogonalEdgeStyle;rounded=0;orthogonalLoop=1;jettySize=auto;html=1;exitX=0;exitY=0.5;exitDx=0;exitDy=0;entryX=1;entryY=0.5;entryDx=0;entryDy=0;" edge="1" parent="1" source="QG6vh3K37DUtd-4cwEf6-7" target="QG6vh3K37DUtd-4cwEf6-92">
          <mxGeometry relative="1" as="geometry" />
        </mxCell>
        <mxCell id="QG6vh3K37DUtd-4cwEf6-7" value="Device under test" style="rounded=1;whiteSpace=wrap;html=1;strokeWidth=2;" vertex="1" parent="1">
          <mxGeometry x="900" y="320" width="80" height="40" as="geometry" />
        </mxCell>
        <mxCell id="QG6vh3K37DUtd-4cwEf6-61" value="" style="group;rotation=90;strokeWidth=1;" vertex="1" connectable="0" parent="1">
          <mxGeometry x="870" y="240" width="60" height="40" as="geometry" />
        </mxCell>
        <mxCell id="QG6vh3K37DUtd-4cwEf6-21" value="" style="rounded=0;whiteSpace=wrap;html=1;rotation=90;strokeWidth=2;" vertex="1" parent="QG6vh3K37DUtd-4cwEf6-61">
          <mxGeometry width="60" height="40" as="geometry" />
        </mxCell>
        <mxCell id="QG6vh3K37DUtd-4cwEf6-22" value="" style="endArrow=none;html=1;rounded=0;" edge="1" parent="QG6vh3K37DUtd-4cwEf6-61">
          <mxGeometry width="50" height="50" relative="1" as="geometry">
            <mxPoint x="30" y="-10" as="sourcePoint" />
            <mxPoint x="30" y="10" as="targetPoint" />
          </mxGeometry>
        </mxCell>
        <mxCell id="QG6vh3K37DUtd-4cwEf6-23" value="" style="endArrow=none;html=1;rounded=0;entryX=0.5;entryY=0;entryDx=0;entryDy=0;" edge="1" parent="QG6vh3K37DUtd-4cwEf6-61" target="QG6vh3K37DUtd-4cwEf6-21">
          <mxGeometry width="50" height="50" relative="1" as="geometry">
            <mxPoint x="40" y="20" as="sourcePoint" />
            <mxPoint x="40" y="40" as="targetPoint" />
          </mxGeometry>
        </mxCell>
        <mxCell id="QG6vh3K37DUtd-4cwEf6-24" value="" style="endArrow=none;html=1;rounded=0;entryX=0.5;entryY=1;entryDx=0;entryDy=0;" edge="1" parent="QG6vh3K37DUtd-4cwEf6-61" target="QG6vh3K37DUtd-4cwEf6-21">
          <mxGeometry width="50" height="50" relative="1" as="geometry">
            <mxPoint x="20" y="20" as="sourcePoint" />
            <mxPoint x="20" y="40" as="targetPoint" />
          </mxGeometry>
        </mxCell>
        <mxCell id="QG6vh3K37DUtd-4cwEf6-25" value="" style="endArrow=none;html=1;rounded=0;" edge="1" parent="QG6vh3K37DUtd-4cwEf6-61">
          <mxGeometry width="50" height="50" relative="1" as="geometry">
            <mxPoint x="30" y="10" as="sourcePoint" />
            <mxPoint x="40" y="20" as="targetPoint" />
          </mxGeometry>
        </mxCell>
        <mxCell id="QG6vh3K37DUtd-4cwEf6-26" value="" style="endArrow=none;html=1;rounded=0;" edge="1" parent="QG6vh3K37DUtd-4cwEf6-61">
          <mxGeometry width="50" height="50" relative="1" as="geometry">
            <mxPoint x="30" y="10" as="sourcePoint" />
            <mxPoint x="20" y="20" as="targetPoint" />
          </mxGeometry>
        </mxCell>
        <mxCell id="QG6vh3K37DUtd-4cwEf6-62" value="" style="group" vertex="1" connectable="0" parent="1">
          <mxGeometry x="520" y="280" width="60" height="40" as="geometry" />
        </mxCell>
        <mxCell id="QG6vh3K37DUtd-4cwEf6-63" value="" style="rounded=0;whiteSpace=wrap;html=1;strokeWidth=2;" vertex="1" parent="QG6vh3K37DUtd-4cwEf6-62">
          <mxGeometry width="60" height="40" as="geometry" />
        </mxCell>
        <mxCell id="QG6vh3K37DUtd-4cwEf6-64" value="" style="endArrow=none;html=1;rounded=0;" edge="1" parent="QG6vh3K37DUtd-4cwEf6-62">
          <mxGeometry width="50" height="50" relative="1" as="geometry">
            <mxPoint y="20" as="sourcePoint" />
            <mxPoint x="20" y="20" as="targetPoint" />
          </mxGeometry>
        </mxCell>
        <mxCell id="QG6vh3K37DUtd-4cwEf6-65" value="" style="endArrow=none;html=1;rounded=0;entryX=0.5;entryY=0;entryDx=0;entryDy=0;" edge="1" parent="QG6vh3K37DUtd-4cwEf6-62" target="QG6vh3K37DUtd-4cwEf6-63">
          <mxGeometry width="50" height="50" relative="1" as="geometry">
            <mxPoint x="30" y="10" as="sourcePoint" />
            <mxPoint x="50" y="10" as="targetPoint" />
          </mxGeometry>
        </mxCell>
        <mxCell id="QG6vh3K37DUtd-4cwEf6-66" value="" style="endArrow=none;html=1;rounded=0;entryX=0.5;entryY=1;entryDx=0;entryDy=0;" edge="1" parent="QG6vh3K37DUtd-4cwEf6-62" target="QG6vh3K37DUtd-4cwEf6-63">
          <mxGeometry width="50" height="50" relative="1" as="geometry">
            <mxPoint x="30" y="30" as="sourcePoint" />
            <mxPoint x="50" y="30" as="targetPoint" />
          </mxGeometry>
        </mxCell>
        <mxCell id="QG6vh3K37DUtd-4cwEf6-67" value="" style="endArrow=none;html=1;rounded=0;" edge="1" parent="QG6vh3K37DUtd-4cwEf6-62">
          <mxGeometry width="50" height="50" relative="1" as="geometry">
            <mxPoint x="20" y="20" as="sourcePoint" />
            <mxPoint x="30" y="10" as="targetPoint" />
          </mxGeometry>
        </mxCell>
        <mxCell id="QG6vh3K37DUtd-4cwEf6-68" value="" style="endArrow=none;html=1;rounded=0;" edge="1" parent="QG6vh3K37DUtd-4cwEf6-62">
          <mxGeometry width="50" height="50" relative="1" as="geometry">
            <mxPoint x="20" y="20" as="sourcePoint" />
            <mxPoint x="30" y="30" as="targetPoint" />
          </mxGeometry>
        </mxCell>
        <mxCell id="QG6vh3K37DUtd-4cwEf6-73" value="" style="group" vertex="1" connectable="0" parent="1">
          <mxGeometry x="600" y="240" width="40" height="40" as="geometry" />
        </mxCell>
        <mxCell id="QG6vh3K37DUtd-4cwEf6-70" value="" style="ellipse;whiteSpace=wrap;html=1;aspect=fixed;strokeWidth=2;" vertex="1" parent="QG6vh3K37DUtd-4cwEf6-73">
          <mxGeometry width="40" height="40" as="geometry" />
        </mxCell>
        <mxCell id="QG6vh3K37DUtd-4cwEf6-71" value="" style="curved=1;endArrow=classic;html=1;rounded=0;" edge="1" parent="QG6vh3K37DUtd-4cwEf6-73">
          <mxGeometry width="50" height="50" relative="1" as="geometry">
            <mxPoint x="8" y="20" as="sourcePoint" />
            <mxPoint x="32" y="20" as="targetPoint" />
            <Array as="points">
              <mxPoint x="20" />
            </Array>
          </mxGeometry>
        </mxCell>
        <mxCell id="QG6vh3K37DUtd-4cwEf6-77" value="" style="group" vertex="1" connectable="0" parent="1">
          <mxGeometry x="600" y="320" width="40" height="40" as="geometry" />
        </mxCell>
        <mxCell id="QG6vh3K37DUtd-4cwEf6-78" value="" style="ellipse;whiteSpace=wrap;html=1;aspect=fixed;strokeWidth=2;" vertex="1" parent="QG6vh3K37DUtd-4cwEf6-77">
          <mxGeometry width="40" height="40" as="geometry" />
        </mxCell>
        <mxCell id="QG6vh3K37DUtd-4cwEf6-79" value="" style="curved=1;endArrow=classic;html=1;rounded=0;" edge="1" parent="QG6vh3K37DUtd-4cwEf6-77">
          <mxGeometry width="50" height="50" relative="1" as="geometry">
            <mxPoint x="8" y="20" as="sourcePoint" />
            <mxPoint x="32" y="20" as="targetPoint" />
            <Array as="points">
              <mxPoint x="20" />
            </Array>
          </mxGeometry>
        </mxCell>
        <mxCell id="QG6vh3K37DUtd-4cwEf6-81" style="edgeStyle=orthogonalEdgeStyle;rounded=0;orthogonalLoop=1;jettySize=auto;html=1;exitX=0.5;exitY=0;exitDx=0;exitDy=0;entryX=0;entryY=0.5;entryDx=0;entryDy=0;" edge="1" parent="1" source="QG6vh3K37DUtd-4cwEf6-63" target="QG6vh3K37DUtd-4cwEf6-70">
          <mxGeometry relative="1" as="geometry" />
        </mxCell>
        <mxCell id="QG6vh3K37DUtd-4cwEf6-82" style="edgeStyle=orthogonalEdgeStyle;rounded=0;orthogonalLoop=1;jettySize=auto;html=1;exitX=0.5;exitY=1;exitDx=0;exitDy=0;entryX=0;entryY=0.5;entryDx=0;entryDy=0;" edge="1" parent="1" source="QG6vh3K37DUtd-4cwEf6-63" target="QG6vh3K37DUtd-4cwEf6-78">
          <mxGeometry relative="1" as="geometry" />
        </mxCell>
        <mxCell id="QG6vh3K37DUtd-4cwEf6-85" style="edgeStyle=orthogonalEdgeStyle;rounded=0;orthogonalLoop=1;jettySize=auto;html=1;exitX=1;exitY=0.5;exitDx=0;exitDy=0;entryX=0;entryY=0.5;entryDx=0;entryDy=0;entryPerimeter=0;" edge="1" parent="1" source="QG6vh3K37DUtd-4cwEf6-70" target="QG6vh3K37DUtd-4cwEf6-5">
          <mxGeometry relative="1" as="geometry" />
        </mxCell>
        <mxCell id="QG6vh3K37DUtd-4cwEf6-87" style="edgeStyle=orthogonalEdgeStyle;rounded=0;orthogonalLoop=1;jettySize=auto;html=1;exitX=1;exitY=0.5;exitDx=0;exitDy=0;entryX=0;entryY=0.5;entryDx=0;entryDy=0;entryPerimeter=0;" edge="1" parent="1" source="QG6vh3K37DUtd-4cwEf6-78" target="QG6vh3K37DUtd-4cwEf6-6">
          <mxGeometry relative="1" as="geometry" />
        </mxCell>
        <mxCell id="QG6vh3K37DUtd-4cwEf6-88" value="" style="group" vertex="1" connectable="0" parent="1">
          <mxGeometry x="800" y="240" width="40" height="40" as="geometry" />
        </mxCell>
        <mxCell id="QG6vh3K37DUtd-4cwEf6-89" value="" style="ellipse;whiteSpace=wrap;html=1;aspect=fixed;strokeWidth=2;" vertex="1" parent="QG6vh3K37DUtd-4cwEf6-88">
          <mxGeometry width="40" height="40" as="geometry" />
        </mxCell>
        <mxCell id="QG6vh3K37DUtd-4cwEf6-90" value="" style="curved=1;endArrow=classic;html=1;rounded=0;" edge="1" parent="QG6vh3K37DUtd-4cwEf6-88">
          <mxGeometry width="50" height="50" relative="1" as="geometry">
            <mxPoint x="32" y="20" as="sourcePoint" />
            <mxPoint x="8" y="20" as="targetPoint" />
            <Array as="points">
              <mxPoint x="20" />
            </Array>
          </mxGeometry>
        </mxCell>
        <mxCell id="QG6vh3K37DUtd-4cwEf6-91" value="" style="group" vertex="1" connectable="0" parent="1">
          <mxGeometry x="800" y="320" width="40" height="40" as="geometry" />
        </mxCell>
        <mxCell id="QG6vh3K37DUtd-4cwEf6-92" value="" style="ellipse;whiteSpace=wrap;html=1;aspect=fixed;strokeWidth=2;" vertex="1" parent="QG6vh3K37DUtd-4cwEf6-91">
          <mxGeometry width="40" height="40" as="geometry" />
        </mxCell>
        <mxCell id="QG6vh3K37DUtd-4cwEf6-93" value="" style="curved=1;endArrow=classic;html=1;rounded=0;" edge="1" parent="QG6vh3K37DUtd-4cwEf6-91">
          <mxGeometry width="50" height="50" relative="1" as="geometry">
            <mxPoint x="32" y="20" as="sourcePoint" />
            <mxPoint x="8" y="20" as="targetPoint" />
            <Array as="points">
              <mxPoint x="20" />
            </Array>
          </mxGeometry>
        </mxCell>
        <mxCell id="QG6vh3K37DUtd-4cwEf6-94" style="edgeStyle=orthogonalEdgeStyle;rounded=0;orthogonalLoop=1;jettySize=auto;html=1;exitX=0;exitY=0.5;exitDx=0;exitDy=0;entryX=1;entryY=0.5;entryDx=0;entryDy=0;entryPerimeter=0;" edge="1" parent="1" source="QG6vh3K37DUtd-4cwEf6-89" target="QG6vh3K37DUtd-4cwEf6-5">
          <mxGeometry relative="1" as="geometry" />
        </mxCell>
        <mxCell id="QG6vh3K37DUtd-4cwEf6-95" style="edgeStyle=orthogonalEdgeStyle;rounded=0;orthogonalLoop=1;jettySize=auto;html=1;exitX=0;exitY=0.5;exitDx=0;exitDy=0;entryX=1;entryY=0.5;entryDx=0;entryDy=0;entryPerimeter=0;" edge="1" parent="1" source="QG6vh3K37DUtd-4cwEf6-92" target="QG6vh3K37DUtd-4cwEf6-6">
          <mxGeometry relative="1" as="geometry" />
        </mxCell>
        <mxCell id="QG6vh3K37DUtd-4cwEf6-96" style="edgeStyle=orthogonalEdgeStyle;rounded=0;orthogonalLoop=1;jettySize=auto;html=1;exitX=0.5;exitY=1;exitDx=0;exitDy=0;entryX=1;entryY=0.5;entryDx=0;entryDy=0;" edge="1" parent="1" source="QG6vh3K37DUtd-4cwEf6-21" target="QG6vh3K37DUtd-4cwEf6-89">
          <mxGeometry relative="1" as="geometry" />
        </mxCell>
        <mxCell id="QG6vh3K37DUtd-4cwEf6-100" style="edgeStyle=orthogonalEdgeStyle;rounded=0;orthogonalLoop=1;jettySize=auto;html=1;exitX=0.5;exitY=0;exitDx=0;exitDy=0;entryX=0.5;entryY=0;entryDx=0;entryDy=0;" edge="1" parent="1" source="QG6vh3K37DUtd-4cwEf6-21" target="QG6vh3K37DUtd-4cwEf6-7">
          <mxGeometry relative="1" as="geometry" />
        </mxCell>
        <mxCell id="QG6vh3K37DUtd-4cwEf6-110" value="" style="group" vertex="1" connectable="0" parent="1">
          <mxGeometry x="600" y="480" width="40" height="40" as="geometry" />
        </mxCell>
        <mxCell id="QG6vh3K37DUtd-4cwEf6-105" value="" style="rounded=1;whiteSpace=wrap;html=1;strokeWidth=2;" vertex="1" parent="QG6vh3K37DUtd-4cwEf6-110">
          <mxGeometry width="40" height="40" as="geometry" />
        </mxCell>
        <mxCell id="QG6vh3K37DUtd-4cwEf6-107" value="" style="pointerEvents=1;verticalLabelPosition=bottom;shadow=0;dashed=0;align=center;html=1;verticalAlign=top;shape=mxgraph.electrical.waveforms.sine_wave;" vertex="1" parent="QG6vh3K37DUtd-4cwEf6-110">
          <mxGeometry x="5" y="10" width="30" height="10" as="geometry" />
        </mxCell>
        <mxCell id="QG6vh3K37DUtd-4cwEf6-108" value="" style="pointerEvents=1;verticalLabelPosition=bottom;shadow=0;dashed=0;align=center;html=1;verticalAlign=top;shape=mxgraph.electrical.waveforms.sine_wave;" vertex="1" parent="QG6vh3K37DUtd-4cwEf6-110">
          <mxGeometry x="5" y="20" width="30" height="10" as="geometry" />
        </mxCell>
        <mxCell id="QG6vh3K37DUtd-4cwEf6-109" value="" style="endArrow=none;html=1;rounded=0;" edge="1" parent="QG6vh3K37DUtd-4cwEf6-110">
          <mxGeometry width="50" height="50" relative="1" as="geometry">
            <mxPoint x="15" y="20" as="sourcePoint" />
            <mxPoint x="25" y="10" as="targetPoint" />
          </mxGeometry>
        </mxCell>
        <mxCell id="QG6vh3K37DUtd-4cwEf6-112" value="" style="group;strokeWidth=1;" vertex="1" connectable="0" parent="1">
          <mxGeometry x="600" y="420" width="40" height="40" as="geometry" />
        </mxCell>
        <mxCell id="QG6vh3K37DUtd-4cwEf6-113" value="" style="rounded=1;whiteSpace=wrap;html=1;strokeWidth=2;" vertex="1" parent="QG6vh3K37DUtd-4cwEf6-112">
          <mxGeometry width="40" height="40" as="geometry" />
        </mxCell>
        <mxCell id="QG6vh3K37DUtd-4cwEf6-114" value="" style="pointerEvents=1;verticalLabelPosition=bottom;shadow=0;dashed=0;align=center;html=1;verticalAlign=top;shape=mxgraph.electrical.waveforms.sine_wave;" vertex="1" parent="QG6vh3K37DUtd-4cwEf6-112">
          <mxGeometry x="5" y="10" width="30" height="10" as="geometry" />
        </mxCell>
        <mxCell id="QG6vh3K37DUtd-4cwEf6-115" value="" style="pointerEvents=1;verticalLabelPosition=bottom;shadow=0;dashed=0;align=center;html=1;verticalAlign=top;shape=mxgraph.electrical.waveforms.sine_wave;" vertex="1" parent="QG6vh3K37DUtd-4cwEf6-112">
          <mxGeometry x="5" y="20" width="30" height="10" as="geometry" />
        </mxCell>
        <mxCell id="QG6vh3K37DUtd-4cwEf6-116" value="" style="endArrow=none;html=1;rounded=0;" edge="1" parent="QG6vh3K37DUtd-4cwEf6-112">
          <mxGeometry width="50" height="50" relative="1" as="geometry">
            <mxPoint x="15" y="20" as="sourcePoint" />
            <mxPoint x="25" y="10" as="targetPoint" />
          </mxGeometry>
        </mxCell>
        <mxCell id="QG6vh3K37DUtd-4cwEf6-129" style="edgeStyle=orthogonalEdgeStyle;rounded=0;orthogonalLoop=1;jettySize=auto;html=1;" edge="1" parent="1">
          <mxGeometry relative="1" as="geometry">
            <mxPoint x="560" y="559.9200000000001" as="sourcePoint" />
            <mxPoint x="590" y="559.9200000000001" as="targetPoint" />
          </mxGeometry>
        </mxCell>
        <mxCell id="QG6vh3K37DUtd-4cwEf6-132" value="" style="group;strokeWidth=1;" vertex="1" connectable="0" parent="1">
          <mxGeometry x="570" y="535" width="10" height="10" as="geometry" />
        </mxCell>
        <mxCell id="QG6vh3K37DUtd-4cwEf6-130" value="" style="endArrow=none;html=1;rounded=0;" edge="1" parent="QG6vh3K37DUtd-4cwEf6-132">
          <mxGeometry width="50" height="50" relative="1" as="geometry">
            <mxPoint y="10" as="sourcePoint" />
            <mxPoint x="10" as="targetPoint" />
          </mxGeometry>
        </mxCell>
        <mxCell id="QG6vh3K37DUtd-4cwEf6-131" value="" style="endArrow=none;html=1;rounded=0;" edge="1" parent="QG6vh3K37DUtd-4cwEf6-132">
          <mxGeometry width="50" height="50" relative="1" as="geometry">
            <mxPoint x="10" y="10" as="sourcePoint" />
            <mxPoint as="targetPoint" />
          </mxGeometry>
        </mxCell>
        <mxCell id="QG6vh3K37DUtd-4cwEf6-133" value="" style="group" vertex="1" connectable="0" parent="1">
          <mxGeometry x="570" y="555" width="10" height="10" as="geometry" />
        </mxCell>
        <mxCell id="QG6vh3K37DUtd-4cwEf6-134" value="" style="endArrow=none;html=1;rounded=0;" edge="1" parent="QG6vh3K37DUtd-4cwEf6-133">
          <mxGeometry width="50" height="50" relative="1" as="geometry">
            <mxPoint y="10" as="sourcePoint" />
            <mxPoint x="10" as="targetPoint" />
          </mxGeometry>
        </mxCell>
        <mxCell id="QG6vh3K37DUtd-4cwEf6-135" value="" style="endArrow=none;html=1;rounded=0;" edge="1" parent="QG6vh3K37DUtd-4cwEf6-133">
          <mxGeometry width="50" height="50" relative="1" as="geometry">
            <mxPoint x="10" y="10" as="sourcePoint" />
            <mxPoint as="targetPoint" />
          </mxGeometry>
        </mxCell>
        <mxCell id="QG6vh3K37DUtd-4cwEf6-138" value="" style="verticalLabelPosition=bottom;html=1;verticalAlign=top;align=center;strokeColor=none;fillColor=#000000;shape=mxgraph.azure.computer;pointerEvents=1;" vertex="1" parent="1">
          <mxGeometry x="150" y="580" width="100" height="85" as="geometry" />
        </mxCell>
        <mxCell id="QG6vh3K37DUtd-4cwEf6-152" style="edgeStyle=orthogonalEdgeStyle;rounded=0;orthogonalLoop=1;jettySize=auto;html=1;" edge="1" parent="1">
          <mxGeometry relative="1" as="geometry">
            <mxPoint x="560" y="539.9200000000001" as="sourcePoint" />
            <mxPoint x="590" y="539.9200000000001" as="targetPoint" />
          </mxGeometry>
        </mxCell>
        <mxCell id="QG6vh3K37DUtd-4cwEf6-154" style="edgeStyle=orthogonalEdgeStyle;rounded=0;orthogonalLoop=1;jettySize=auto;html=1;exitX=0.5;exitY=1;exitDx=0;exitDy=0;exitPerimeter=0;entryX=1;entryY=0.5;entryDx=0;entryDy=0;jumpStyle=arc;" edge="1" parent="1" source="QG6vh3K37DUtd-4cwEf6-5" target="QG6vh3K37DUtd-4cwEf6-105">
          <mxGeometry relative="1" as="geometry" />
        </mxCell>
        <mxCell id="QG6vh3K37DUtd-4cwEf6-168" style="edgeStyle=orthogonalEdgeStyle;rounded=0;orthogonalLoop=1;jettySize=auto;html=1;exitX=0;exitY=0.5;exitDx=0;exitDy=0;" edge="1" parent="1" source="QG6vh3K37DUtd-4cwEf6-113">
          <mxGeometry relative="1" as="geometry">
            <mxPoint x="560" y="440" as="targetPoint" />
          </mxGeometry>
        </mxCell>
        <mxCell id="QG6vh3K37DUtd-4cwEf6-170" style="edgeStyle=orthogonalEdgeStyle;rounded=0;orthogonalLoop=1;jettySize=auto;html=1;exitX=0;exitY=0.5;exitDx=0;exitDy=0;" edge="1" parent="1" source="QG6vh3K37DUtd-4cwEf6-105">
          <mxGeometry relative="1" as="geometry">
            <mxPoint x="560" y="500" as="targetPoint" />
            <Array as="points">
              <mxPoint x="600" y="500" />
              <mxPoint x="600" y="500" />
            </Array>
          </mxGeometry>
        </mxCell>
        <mxCell id="QG6vh3K37DUtd-4cwEf6-174" value="" style="group" vertex="1" connectable="0" parent="1">
          <mxGeometry x="475" y="420" width="90" height="160" as="geometry" />
        </mxCell>
        <mxCell id="QG6vh3K37DUtd-4cwEf6-102" value="Red Pitaya&lt;div&gt;STEMLab 125-14&lt;/div&gt;&lt;div&gt;&lt;br&gt;&lt;/div&gt;&lt;div&gt;&lt;br&gt;&lt;/div&gt;&lt;div&gt;&lt;br&gt;&lt;/div&gt;&lt;div&gt;&lt;br&gt;&lt;/div&gt;" style="rounded=1;whiteSpace=wrap;html=1;strokeWidth=2;" vertex="1" parent="QG6vh3K37DUtd-4cwEf6-174">
          <mxGeometry x="5" width="80" height="160" as="geometry" />
        </mxCell>
        <mxCell id="QG6vh3K37DUtd-4cwEf6-121" value="IN1" style="text;html=1;align=center;verticalAlign=middle;resizable=0;points=[];autosize=1;strokeColor=none;fillColor=none;fontSize=10;" vertex="1" parent="QG6vh3K37DUtd-4cwEf6-174">
          <mxGeometry x="50" y="5" width="40" height="30" as="geometry" />
        </mxCell>
        <mxCell id="QG6vh3K37DUtd-4cwEf6-122" value="IN2" style="text;html=1;align=center;verticalAlign=middle;resizable=0;points=[];autosize=1;strokeColor=none;fillColor=none;fontSize=10;" vertex="1" parent="QG6vh3K37DUtd-4cwEf6-174">
          <mxGeometry x="50" y="65" width="40" height="30" as="geometry" />
        </mxCell>
        <mxCell id="QG6vh3K37DUtd-4cwEf6-123" value="OUT1" style="text;html=1;align=center;verticalAlign=middle;resizable=0;points=[];autosize=1;strokeColor=none;fillColor=none;fontSize=10;" vertex="1" parent="QG6vh3K37DUtd-4cwEf6-174">
          <mxGeometry x="40" y="105" width="50" height="30" as="geometry" />
        </mxCell>
        <mxCell id="QG6vh3K37DUtd-4cwEf6-124" value="OUT2" style="text;html=1;align=center;verticalAlign=middle;resizable=0;points=[];autosize=1;strokeColor=none;fillColor=none;fontSize=10;" vertex="1" parent="QG6vh3K37DUtd-4cwEf6-174">
          <mxGeometry x="40" y="125" width="50" height="30" as="geometry" />
        </mxCell>
        <mxCell id="QG6vh3K37DUtd-4cwEf6-143" value="ETH" style="text;html=1;align=center;verticalAlign=middle;resizable=0;points=[];autosize=1;strokeColor=none;fillColor=none;fontSize=10;" vertex="1" parent="QG6vh3K37DUtd-4cwEf6-174">
          <mxGeometry y="5" width="40" height="30" as="geometry" />
        </mxCell>
        <mxCell id="QG6vh3K37DUtd-4cwEf6-144" value="TRIG1" style="text;html=1;align=center;verticalAlign=middle;resizable=0;points=[];autosize=1;strokeColor=none;fillColor=none;fontSize=10;" vertex="1" parent="QG6vh3K37DUtd-4cwEf6-174">
          <mxGeometry y="85" width="50" height="30" as="geometry" />
        </mxCell>
        <mxCell id="QG6vh3K37DUtd-4cwEf6-145" value="TRIG2" style="text;html=1;align=center;verticalAlign=middle;resizable=0;points=[];autosize=1;strokeColor=none;fillColor=none;fontSize=10;" vertex="1" parent="QG6vh3K37DUtd-4cwEf6-174">
          <mxGeometry y="105" width="50" height="30" as="geometry" />
        </mxCell>
        <mxCell id="QG6vh3K37DUtd-4cwEf6-146" value="CLK" style="text;html=1;align=center;verticalAlign=middle;resizable=0;points=[];autosize=1;strokeColor=none;fillColor=none;fontSize=10;" vertex="1" parent="QG6vh3K37DUtd-4cwEf6-174">
          <mxGeometry y="125" width="40" height="30" as="geometry" />
        </mxCell>
        <mxCell id="QG6vh3K37DUtd-4cwEf6-211" value="" style="group" vertex="1" connectable="0" parent="1">
          <mxGeometry x="570" y="435" width="10" height="10" as="geometry" />
        </mxCell>
        <mxCell id="QG6vh3K37DUtd-4cwEf6-212" value="" style="endArrow=none;html=1;rounded=0;" edge="1" parent="QG6vh3K37DUtd-4cwEf6-211">
          <mxGeometry width="50" height="50" relative="1" as="geometry">
            <mxPoint y="10" as="sourcePoint" />
            <mxPoint x="10" as="targetPoint" />
          </mxGeometry>
        </mxCell>
        <mxCell id="QG6vh3K37DUtd-4cwEf6-213" value="" style="endArrow=none;html=1;rounded=0;" edge="1" parent="QG6vh3K37DUtd-4cwEf6-211">
          <mxGeometry width="50" height="50" relative="1" as="geometry">
            <mxPoint x="10" y="10" as="sourcePoint" />
            <mxPoint as="targetPoint" />
          </mxGeometry>
        </mxCell>
        <mxCell id="QG6vh3K37DUtd-4cwEf6-214" value="" style="group" vertex="1" connectable="0" parent="1">
          <mxGeometry x="570" y="495" width="10" height="10" as="geometry" />
        </mxCell>
        <mxCell id="QG6vh3K37DUtd-4cwEf6-215" value="" style="endArrow=none;html=1;rounded=0;" edge="1" parent="QG6vh3K37DUtd-4cwEf6-214">
          <mxGeometry width="50" height="50" relative="1" as="geometry">
            <mxPoint y="10" as="sourcePoint" />
            <mxPoint x="10" as="targetPoint" />
          </mxGeometry>
        </mxCell>
        <mxCell id="QG6vh3K37DUtd-4cwEf6-216" value="" style="endArrow=none;html=1;rounded=0;" edge="1" parent="QG6vh3K37DUtd-4cwEf6-214">
          <mxGeometry width="50" height="50" relative="1" as="geometry">
            <mxPoint x="10" y="10" as="sourcePoint" />
            <mxPoint as="targetPoint" />
          </mxGeometry>
        </mxCell>
        <mxCell id="QG6vh3K37DUtd-4cwEf6-220" style="edgeStyle=orthogonalEdgeStyle;rounded=0;orthogonalLoop=1;jettySize=auto;html=1;exitX=1;exitY=0.5;exitDx=0;exitDy=0;entryX=0;entryY=0.5;entryDx=0;entryDy=0;" edge="1" parent="1" source="QG6vh3K37DUtd-4cwEf6-205" target="QG6vh3K37DUtd-4cwEf6-21">
          <mxGeometry relative="1" as="geometry" />
        </mxCell>
        <mxCell id="QG6vh3K37DUtd-4cwEf6-221" value="" style="group" vertex="1" connectable="0" parent="1">
          <mxGeometry x="350" y="80" width="90" height="160" as="geometry" />
        </mxCell>
        <mxCell id="QG6vh3K37DUtd-4cwEf6-205" value="AnaPico&lt;br&gt;APUASYN20&lt;div&gt;&lt;br&gt;&lt;/div&gt;&lt;div&gt;&lt;br&gt;&lt;/div&gt;&lt;div&gt;&lt;br&gt;&lt;/div&gt;&lt;div&gt;&lt;br&gt;&lt;/div&gt;&lt;div&gt;&lt;br&gt;&lt;/div&gt;" style="rounded=1;whiteSpace=wrap;html=1;strokeWidth=2;" vertex="1" parent="QG6vh3K37DUtd-4cwEf6-221">
          <mxGeometry x="10" width="80" height="160" as="geometry" />
        </mxCell>
        <mxCell id="QG6vh3K37DUtd-4cwEf6-206" value="ETH" style="text;html=1;align=center;verticalAlign=middle;resizable=0;points=[];autosize=1;strokeColor=none;fillColor=none;fontSize=10;" vertex="1" parent="QG6vh3K37DUtd-4cwEf6-221">
          <mxGeometry x="5" y="5" width="40" height="30" as="geometry" />
        </mxCell>
        <mxCell id="QG6vh3K37DUtd-4cwEf6-207" value="REF IN" style="text;html=1;align=center;verticalAlign=middle;resizable=0;points=[];autosize=1;strokeColor=none;fillColor=none;fontSize=10;" vertex="1" parent="QG6vh3K37DUtd-4cwEf6-221">
          <mxGeometry y="85" width="60" height="30" as="geometry" />
        </mxCell>
        <mxCell id="QG6vh3K37DUtd-4cwEf6-208" value="OUT" style="text;html=1;align=center;verticalAlign=middle;resizable=0;points=[];autosize=1;strokeColor=none;fillColor=none;fontSize=10;" vertex="1" parent="QG6vh3K37DUtd-4cwEf6-221">
          <mxGeometry x="50" y="65" width="40" height="30" as="geometry" />
        </mxCell>
        <mxCell id="QG6vh3K37DUtd-4cwEf6-209" value="REF OUT" style="text;html=1;align=center;verticalAlign=middle;resizable=0;points=[];autosize=1;strokeColor=none;fillColor=none;fontSize=10;" vertex="1" parent="QG6vh3K37DUtd-4cwEf6-221">
          <mxGeometry y="105" width="70" height="30" as="geometry" />
        </mxCell>
        <mxCell id="QG6vh3K37DUtd-4cwEf6-210" value="TRIGGER" style="text;html=1;align=center;verticalAlign=middle;resizable=0;points=[];autosize=1;strokeColor=none;fillColor=none;fontSize=10;" vertex="1" parent="QG6vh3K37DUtd-4cwEf6-221">
          <mxGeometry y="125" width="70" height="30" as="geometry" />
        </mxCell>
        <mxCell id="QG6vh3K37DUtd-4cwEf6-222" value="" style="group" vertex="1" connectable="0" parent="1">
          <mxGeometry x="350" y="260" width="90" height="160" as="geometry" />
        </mxCell>
        <mxCell id="QG6vh3K37DUtd-4cwEf6-223" value="AnaPico&lt;br&gt;APUASYN20&lt;div&gt;&lt;br&gt;&lt;/div&gt;&lt;div&gt;&lt;br&gt;&lt;/div&gt;&lt;div&gt;&lt;br&gt;&lt;/div&gt;&lt;div&gt;&lt;br&gt;&lt;/div&gt;&lt;div&gt;&lt;br&gt;&lt;/div&gt;" style="rounded=1;whiteSpace=wrap;html=1;strokeWidth=2;" vertex="1" parent="QG6vh3K37DUtd-4cwEf6-222">
          <mxGeometry x="10" width="80" height="160" as="geometry" />
        </mxCell>
        <mxCell id="QG6vh3K37DUtd-4cwEf6-224" value="ETH" style="text;html=1;align=center;verticalAlign=middle;resizable=0;points=[];autosize=1;strokeColor=none;fillColor=none;fontSize=10;" vertex="1" parent="QG6vh3K37DUtd-4cwEf6-222">
          <mxGeometry x="5" y="5" width="40" height="30" as="geometry" />
        </mxCell>
        <mxCell id="QG6vh3K37DUtd-4cwEf6-225" value="REF IN" style="text;html=1;align=center;verticalAlign=middle;resizable=0;points=[];autosize=1;strokeColor=none;fillColor=none;fontSize=10;" vertex="1" parent="QG6vh3K37DUtd-4cwEf6-222">
          <mxGeometry y="85" width="60" height="30" as="geometry" />
        </mxCell>
        <mxCell id="QG6vh3K37DUtd-4cwEf6-226" value="OUT" style="text;html=1;align=center;verticalAlign=middle;resizable=0;points=[];autosize=1;strokeColor=none;fillColor=none;fontSize=10;" vertex="1" parent="QG6vh3K37DUtd-4cwEf6-222">
          <mxGeometry x="50" y="65" width="40" height="30" as="geometry" />
        </mxCell>
        <mxCell id="QG6vh3K37DUtd-4cwEf6-227" value="REF OUT" style="text;html=1;align=center;verticalAlign=middle;resizable=0;points=[];autosize=1;strokeColor=none;fillColor=none;fontSize=10;" vertex="1" parent="QG6vh3K37DUtd-4cwEf6-222">
          <mxGeometry y="105" width="70" height="30" as="geometry" />
        </mxCell>
        <mxCell id="QG6vh3K37DUtd-4cwEf6-228" value="TRIGGER" style="text;html=1;align=center;verticalAlign=middle;resizable=0;points=[];autosize=1;strokeColor=none;fillColor=none;fontSize=10;" vertex="1" parent="QG6vh3K37DUtd-4cwEf6-222">
          <mxGeometry y="125" width="70" height="30" as="geometry" />
        </mxCell>
        <mxCell id="QG6vh3K37DUtd-4cwEf6-229" style="edgeStyle=orthogonalEdgeStyle;rounded=0;orthogonalLoop=1;jettySize=auto;html=1;exitX=1;exitY=0.5;exitDx=0;exitDy=0;entryX=0;entryY=0.5;entryDx=0;entryDy=0;" edge="1" parent="1" source="QG6vh3K37DUtd-4cwEf6-223" target="QG6vh3K37DUtd-4cwEf6-63">
          <mxGeometry relative="1" as="geometry" />
        </mxCell>
        <mxCell id="QG6vh3K37DUtd-4cwEf6-236" style="edgeStyle=orthogonalEdgeStyle;rounded=0;orthogonalLoop=1;jettySize=auto;html=1;exitX=1;exitY=0.25;exitDx=0;exitDy=0;" edge="1" parent="1">
          <mxGeometry relative="1" as="geometry">
            <mxPoint x="440" y="620" as="sourcePoint" />
            <mxPoint x="480" y="560" as="targetPoint" />
            <Array as="points">
              <mxPoint x="460" y="620" />
              <mxPoint x="460" y="560" />
            </Array>
          </mxGeometry>
        </mxCell>
        <mxCell id="QG6vh3K37DUtd-4cwEf6-244" value="" style="group" vertex="1" connectable="0" parent="1">
          <mxGeometry x="350" y="540" width="90" height="160" as="geometry" />
        </mxCell>
        <mxCell id="QG6vh3K37DUtd-4cwEf6-245" value="AnaPico&lt;br&gt;APUASYN20&lt;div&gt;&lt;br&gt;&lt;/div&gt;&lt;div&gt;&lt;br&gt;&lt;/div&gt;&lt;div&gt;&lt;br&gt;&lt;/div&gt;&lt;div&gt;&lt;br&gt;&lt;/div&gt;&lt;div&gt;&lt;br&gt;&lt;/div&gt;" style="rounded=1;whiteSpace=wrap;html=1;strokeWidth=2;" vertex="1" parent="QG6vh3K37DUtd-4cwEf6-244">
          <mxGeometry x="10" width="80" height="160" as="geometry" />
        </mxCell>
        <mxCell id="QG6vh3K37DUtd-4cwEf6-246" value="ETH" style="text;html=1;align=center;verticalAlign=middle;resizable=0;points=[];autosize=1;strokeColor=none;fillColor=none;fontSize=10;" vertex="1" parent="QG6vh3K37DUtd-4cwEf6-244">
          <mxGeometry x="5" y="5" width="40" height="30" as="geometry" />
        </mxCell>
        <mxCell id="QG6vh3K37DUtd-4cwEf6-247" value="REF IN" style="text;html=1;align=center;verticalAlign=middle;resizable=0;points=[];autosize=1;strokeColor=none;fillColor=none;fontSize=10;" vertex="1" parent="QG6vh3K37DUtd-4cwEf6-244">
          <mxGeometry y="85" width="60" height="30" as="geometry" />
        </mxCell>
        <mxCell id="QG6vh3K37DUtd-4cwEf6-248" value="OUT" style="text;html=1;align=center;verticalAlign=middle;resizable=0;points=[];autosize=1;strokeColor=none;fillColor=none;fontSize=10;" vertex="1" parent="QG6vh3K37DUtd-4cwEf6-244">
          <mxGeometry x="50" y="65" width="40" height="30" as="geometry" />
        </mxCell>
        <mxCell id="QG6vh3K37DUtd-4cwEf6-249" value="REF OUT" style="text;html=1;align=center;verticalAlign=middle;resizable=0;points=[];autosize=1;strokeColor=none;fillColor=none;fontSize=10;" vertex="1" parent="QG6vh3K37DUtd-4cwEf6-244">
          <mxGeometry y="105" width="70" height="30" as="geometry" />
        </mxCell>
        <mxCell id="QG6vh3K37DUtd-4cwEf6-250" value="TRIGGER" style="text;html=1;align=center;verticalAlign=middle;resizable=0;points=[];autosize=1;strokeColor=none;fillColor=none;fontSize=10;" vertex="1" parent="QG6vh3K37DUtd-4cwEf6-244">
          <mxGeometry y="125" width="70" height="30" as="geometry" />
        </mxCell>
        <mxCell id="QG6vh3K37DUtd-4cwEf6-261" style="edgeStyle=orthogonalEdgeStyle;rounded=0;orthogonalLoop=1;jettySize=auto;html=1;exitX=0.5;exitY=0;exitDx=0;exitDy=0;startArrow=classic;startFill=1;" edge="1" parent="1" source="QG6vh3K37DUtd-4cwEf6-251">
          <mxGeometry relative="1" as="geometry">
            <mxPoint x="360" y="100" as="targetPoint" />
            <Array as="points">
              <mxPoint x="200" y="100" />
            </Array>
          </mxGeometry>
        </mxCell>
        <mxCell id="QG6vh3K37DUtd-4cwEf6-251" value="Ethernet switch" style="rounded=1;whiteSpace=wrap;html=1;strokeWidth=2;" vertex="1" parent="1">
          <mxGeometry x="160" y="220" width="80" height="240" as="geometry" />
        </mxCell>
        <mxCell id="QG6vh3K37DUtd-4cwEf6-254" value="" style="endArrow=classic;startArrow=classic;html=1;rounded=0;exitX=0.5;exitY=1;exitDx=0;exitDy=0;edgeStyle=elbowEdgeStyle;entryX=0.5;entryY=0;entryDx=0;entryDy=0;entryPerimeter=0;" edge="1" parent="1" source="QG6vh3K37DUtd-4cwEf6-251" target="QG6vh3K37DUtd-4cwEf6-138">
          <mxGeometry width="50" height="50" relative="1" as="geometry">
            <mxPoint x="-20" y="565" as="sourcePoint" />
            <mxPoint x="220" y="585" as="targetPoint" />
            <Array as="points">
              <mxPoint x="200" y="570" />
            </Array>
          </mxGeometry>
        </mxCell>
        <mxCell id="QG6vh3K37DUtd-4cwEf6-258" style="edgeStyle=orthogonalEdgeStyle;rounded=0;orthogonalLoop=1;jettySize=auto;html=1;exitX=1;exitY=0.75;exitDx=0;exitDy=0;startArrow=classic;startFill=1;jumpStyle=arc;" edge="1" parent="1" source="QG6vh3K37DUtd-4cwEf6-251">
          <mxGeometry relative="1" as="geometry">
            <mxPoint x="360" y="560" as="targetPoint" />
            <Array as="points">
              <mxPoint x="280" y="400" />
              <mxPoint x="280" y="560" />
            </Array>
          </mxGeometry>
        </mxCell>
        <mxCell id="QG6vh3K37DUtd-4cwEf6-252" value="" style="endArrow=classic;startArrow=classic;html=1;rounded=0;exitX=1;exitY=0.5;exitDx=0;exitDy=0;edgeStyle=elbowEdgeStyle;jumpStyle=arc;" edge="1" parent="1" source="QG6vh3K37DUtd-4cwEf6-251">
          <mxGeometry width="50" height="50" relative="1" as="geometry">
            <mxPoint x="30" y="420" as="sourcePoint" />
            <mxPoint x="480" y="440" as="targetPoint" />
            <Array as="points">
              <mxPoint x="300" y="430" />
            </Array>
          </mxGeometry>
        </mxCell>
        <mxCell id="QG6vh3K37DUtd-4cwEf6-230" value="" style="endArrow=classic;html=1;rounded=0;edgeStyle=elbowEdgeStyle;jumpStyle=arc;" edge="1" parent="1">
          <mxGeometry width="50" height="50" relative="1" as="geometry">
            <mxPoint x="360" y="200" as="sourcePoint" />
            <mxPoint x="360" y="360" as="targetPoint" />
            <Array as="points">
              <mxPoint x="320" y="280" />
            </Array>
          </mxGeometry>
        </mxCell>
        <mxCell id="QG6vh3K37DUtd-4cwEf6-232" value="" style="endArrow=classic;html=1;rounded=0;edgeStyle=elbowEdgeStyle;jumpStyle=arc;" edge="1" parent="1">
          <mxGeometry width="50" height="50" relative="1" as="geometry">
            <mxPoint x="480" y="520" as="sourcePoint" />
            <mxPoint x="360" y="400" as="targetPoint" />
            <Array as="points">
              <mxPoint x="340" y="370" />
            </Array>
          </mxGeometry>
        </mxCell>
        <mxCell id="QG6vh3K37DUtd-4cwEf6-233" value="" style="endArrow=classic;html=1;rounded=0;edgeStyle=elbowEdgeStyle;jumpStyle=arc;" edge="1" parent="1">
          <mxGeometry width="50" height="50" relative="1" as="geometry">
            <mxPoint x="360" y="380" as="sourcePoint" />
            <mxPoint x="360" y="640" as="targetPoint" />
            <Array as="points">
              <mxPoint x="320" y="280" />
            </Array>
          </mxGeometry>
        </mxCell>
        <mxCell id="QG6vh3K37DUtd-4cwEf6-231" value="" style="endArrow=classic;html=1;rounded=0;edgeStyle=elbowEdgeStyle;jumpStyle=arc;" edge="1" parent="1">
          <mxGeometry width="50" height="50" relative="1" as="geometry">
            <mxPoint x="480" y="520" as="sourcePoint" />
            <mxPoint x="360" y="220" as="targetPoint" />
            <Array as="points">
              <mxPoint x="340" y="370" />
            </Array>
          </mxGeometry>
        </mxCell>
        <mxCell id="QG6vh3K37DUtd-4cwEf6-264" value="&lt;font style=&quot;font-size: 18px;&quot;&gt;50 Ω&lt;/font&gt;&lt;span style=&quot;font-size: 18px; background-color: initial;&quot;&gt;&amp;nbsp;parallel resistance&lt;/span&gt;" style="text;html=1;align=center;verticalAlign=middle;resizable=0;points=[];autosize=1;strokeColor=none;fillColor=none;" vertex="1" parent="1">
          <mxGeometry x="755" y="600" width="210" height="40" as="geometry" />
        </mxCell>
        <mxCell id="QG6vh3K37DUtd-4cwEf6-265" value="" style="group" vertex="1" connectable="0" parent="1">
          <mxGeometry x="730" y="615" width="10" height="10" as="geometry" />
        </mxCell>
        <mxCell id="QG6vh3K37DUtd-4cwEf6-266" value="" style="endArrow=none;html=1;rounded=0;" edge="1" parent="QG6vh3K37DUtd-4cwEf6-265">
          <mxGeometry width="50" height="50" relative="1" as="geometry">
            <mxPoint y="10" as="sourcePoint" />
            <mxPoint x="10" as="targetPoint" />
          </mxGeometry>
        </mxCell>
        <mxCell id="QG6vh3K37DUtd-4cwEf6-267" value="" style="endArrow=none;html=1;rounded=0;" edge="1" parent="QG6vh3K37DUtd-4cwEf6-265">
          <mxGeometry width="50" height="50" relative="1" as="geometry">
            <mxPoint x="10" y="10" as="sourcePoint" />
            <mxPoint as="targetPoint" />
          </mxGeometry>
        </mxCell>
        <mxCell id="QG6vh3K37DUtd-4cwEf6-268" style="edgeStyle=orthogonalEdgeStyle;rounded=0;orthogonalLoop=1;jettySize=auto;html=1;" edge="1" parent="1">
          <mxGeometry relative="1" as="geometry">
            <mxPoint x="720" y="619.8600000000001" as="sourcePoint" />
            <mxPoint x="750" y="619.8600000000001" as="targetPoint" />
          </mxGeometry>
        </mxCell>
        <mxCell id="QG6vh3K37DUtd-4cwEf6-269" value="LO" style="text;html=1;align=center;verticalAlign=middle;resizable=0;points=[];autosize=1;strokeColor=none;fillColor=none;" vertex="1" parent="1">
          <mxGeometry x="650" y="310" width="40" height="30" as="geometry" />
        </mxCell>
        <mxCell id="QG6vh3K37DUtd-4cwEf6-270" value="RF" style="text;html=1;align=center;verticalAlign=middle;resizable=0;points=[];autosize=1;strokeColor=none;fillColor=none;" vertex="1" parent="1">
          <mxGeometry x="710" y="310" width="40" height="30" as="geometry" />
        </mxCell>
        <mxCell id="QG6vh3K37DUtd-4cwEf6-271" value="RF" style="text;html=1;align=center;verticalAlign=middle;resizable=0;points=[];autosize=1;strokeColor=none;fillColor=none;" vertex="1" parent="1">
          <mxGeometry x="710" y="310" width="40" height="30" as="geometry" />
        </mxCell>
        <mxCell id="QG6vh3K37DUtd-4cwEf6-272" value="LO" style="text;html=1;align=center;verticalAlign=middle;resizable=0;points=[];autosize=1;strokeColor=none;fillColor=none;" vertex="1" parent="1">
          <mxGeometry x="690" y="230" width="40" height="30" as="geometry" />
        </mxCell>
        <mxCell id="QG6vh3K37DUtd-4cwEf6-273" value="RF" style="text;html=1;align=center;verticalAlign=middle;resizable=0;points=[];autosize=1;strokeColor=none;fillColor=none;" vertex="1" parent="1">
          <mxGeometry x="750" y="230" width="40" height="30" as="geometry" />
        </mxCell>
      </root>
    </mxGraphModel>
  </diagram>
</mxfile>
